<svg xmlns="http://www.w3.org/2000/svg" baseProfile="full" version="1.1" width="630px" height="330px" style="fill: none; width: 630px; height: 330px;"><path d="" style="stroke-width: 10; stroke-linecap: round; stroke-linejoin: round; stroke: rgb(102, 96, 107); fill: none;"/><path d="" style="stroke-width: 10; stroke-linecap: round; stroke-linejoin: round; stroke: rgb(228, 116, 100); fill: none;"/><path d="M165,255 L165,255 A30,90 0 0,0 195,165 A30,15 0 0,0 165,180 L165,255 M165,180 A30,15 0 0,0 195,165 A30,15 0 0,1 165,180 M165,150 L180,150 A60,105 0 0,0 240,255 L240,255 L240,180 A30,15 0 0,0 210,165 L210,150 L270,150 L270,180 A15,15 0 0,0 285,195 L285,150 L315,150 L315,150 L315,120 L165,135 L165,150 M315,165 A15,30 0 0,0 300,195 L300,255 A15,15 0 0,0 315,240 L315,165 M315,120 L315,120 L165,135 L165,135 L165,105 L285,90 L315,120 M285,90 L285,90 L300,45 L210,45 A45,60 0 0,0 165,105 " style="stroke-width: 1; stroke-linecap: round; stroke-linejoin: round; stroke: rgb(255, 255, 255); fill: rgb(255, 255, 255);"/></svg>